<svg width="64" height="64" viewBox="0 0 64 64" fill="none" xmlns="http://www.w3.org/2000/svg">
<path d="M28 44H36V52H28V44ZM44 16C45.0609 16 46.0783 16.4214 46.8284 17.1716C47.5786 17.9217 48 18.9391 48 20V32L36 40H28V36L40 28V24H20V16H44ZM32 6C25.056 6 18.524 8.704 13.616 13.616C8.708 18.528 6 25.056 6 32C6 38.944 8.704 45.476 13.616 50.384C18.528 55.292 25.056 58 32 58C38.944 58 45.476 55.296 50.384 50.384C55.292 45.472 58 38.944 58 32C58 25.056 55.296 18.524 50.384 13.616C45.472 8.708 38.944 6 32 6ZM32 0C40.4869 0 48.6263 3.37142 54.6274 9.37258C60.6286 15.3737 64 23.5131 64 32C64 40.4869 60.6286 48.6263 54.6274 54.6274C48.6263 60.6286 40.4869 64 32 64C23.5131 64 15.3737 60.6286 9.37258 54.6274C3.37142 48.6263 0 40.4869 0 32C0 23.5131 3.37142 15.3737 9.37258 9.37258C15.3737 3.37142 23.5131 0 32 0V0Z" fill="white"/>
</svg>
